<svg xmlns="http://www.w3.org/2000/svg" viewBox="-4 -4 72 58"><g fill="#fffdf8" stroke="#fffdf8" stroke-width="8" stroke-linejoin="round" stroke-linecap="round"><path d="M30 25 L19 47 L25.5 44.5 L28.5 50 L34 27 Z"/><path d="M34 25 L45 47 L38.5 44.5 L35.5 50 L30 27 Z"/><path d="M32 22 C22 6 4 4 4 18 C4 30 21 31 32 25 Z"/><path d="M32 22 C42 6 60 4 60 18 C60 30 43 31 32 25 Z"/><rect x="26.5" y="16.5" width="11" height="12" rx="4.5"/></g><path d="M30 25 L19 47 L25.5 44.5 L28.5 50 L34 27 Z" fill="#e39bb0"/><path d="M34 25 L45 47 L38.5 44.5 L35.5 50 L30 27 Z" fill="#e39bb0"/><path d="M32 22 C22 6 4 4 4 18 C4 30 21 31 32 25 Z" fill="#efb5c4"/><path d="M32 22 C42 6 60 4 60 18 C60 30 43 31 32 25 Z" fill="#efb5c4"/><rect x="26.5" y="16.5" width="11" height="12" rx="4.5" fill="#c95d7b"/><path d="M12 14 C16 11 22 13 27 19M52 14 C48 11 42 13 37 19" fill="none" stroke="#fbe1e8" stroke-width="2.2" stroke-linecap="round"/><path d="M12 22c4 2 9 2 14 0M52 22c-4 2-9 2-14 0" fill="none" stroke="#d98aa0" stroke-width="1.4" stroke-linecap="round"/></svg>