<svg xmlns="http://www.w3.org/2000/svg" viewBox="-4 -4 72 64"><g fill="#fffdf8" stroke="#fffdf8" stroke-width="8" stroke-linejoin="round" stroke-linecap="round"><ellipse cx="19" cy="20" rx="14" ry="12" transform="rotate(-20 19 20)"/><ellipse cx="45" cy="20" rx="14" ry="12" transform="rotate(20 45 20)"/><ellipse cx="21" cy="40" rx="10" ry="9" transform="rotate(20 21 40)"/><ellipse cx="43" cy="40" rx="10" ry="9" transform="rotate(-20 43 40)"/><rect x="29.5" y="14" width="5" height="34" rx="2.5"/></g><ellipse cx="19" cy="20" rx="14" ry="12" transform="rotate(-20 19 20)" fill="#f2c8d1"/><ellipse cx="45" cy="20" rx="14" ry="12" transform="rotate(20 45 20)" fill="#f2c8d1"/><ellipse cx="21" cy="40" rx="10" ry="9" transform="rotate(20 21 40)" fill="#e7aabb"/><ellipse cx="43" cy="40" rx="10" ry="9" transform="rotate(-20 43 40)" fill="#e7aabb"/><rect x="29.5" y="14" width="5" height="34" rx="2.5" fill="#4b3437"/><path d="M31 15 Q27 6 22 4M33 15 Q37 6 42 4" fill="none" stroke="#4b3437" stroke-width="1.8" stroke-linecap="round"/><circle cx="17" cy="19" r="4" fill="#f6dc91"/><circle cx="47" cy="19" r="4" fill="#f6dc91"/></svg>